
<?xml version="1.0" encoding="UTF-8"?><svg id="svg_canvas" data-noselect="" viewBox="0 0 800 600" width="800" height="600" preserveAspectRatio="none" version="1.1" xmlns="http://www.w3.org/2000/svg" xmlns:xlink="http://www.w3.org/1999/xlink"><defs></defs> <g id="background" data-noselect=""><rect fill="#ffffff" width="800" height="600" data-noselect=""></rect> <!----></g> <g id="shape_MzfNhiWN5Q" transform="translate(315.55466682138496,194.15463978755002) rotate(-167,163.21530609862,140.95700239485) scale(1,1)" filter="" style="cursor: move; opacity: 1;"><g><rect fill="rgba(0,0,0,0)" width="346.43061219724" height="301.91400478971" x="-10" y="-10"></rect><svg version="1.1" id="图层_1" xmlns="http://www.w3.org/2000/svg" xmlns:xlink="http://www.w3.org/1999/xlink" x="0px" y="0px" viewBox="0 0 201.9 110.1" style="enable-background:new 0 0 201.9 110.1;" xml:space="preserve" width="326.43061219724" height="281.91400478971" class="style-removed" preserveAspectRatio="none" data-parent="shape_MzfNhiWN5Q">

    <path d="M194.5,8.1c0,0-2.2,2.2-6,2.5c-9.3-5-28.8-12.7-57.9-10c-13.7,1.3-24.7,5.3-32.6,9.4c-0.9,0-1.8,0-2.7,0.1
        c-30.9,1.6-49,8.3-66.6,25.2c-12.5,12-15.9,28-17.1,39.7C7.7,83.6,0,85.9,0,85.9c9.5,5.6,13.7,24.3,13.7,24.3S18,91.5,27.5,85.9
        c0,0-7.2-2.1-11.3-10.1C18,63.5,26.9,50.9,37.4,41.2C49.6,29.9,70.8,20.8,105,19.7c17-0.5,31.8,1,42.7,2.8
        c5.6,4.2,5.6,10.2,5.6,10.2c5.5-5.1,18.3-4.3,18.3-4.3s-11.3-6.3-13.1-13.5c0,0-2.2,3.5-7.1,5c-8.9-3.4-21.1-7.1-34.7-8.9
        c4.9-1.6,10.6-2.6,17.7-3.2c22-1.6,42.5,3,51.8,5.6c2.1,3.6,1.3,7,1.3,7c4.9-2.8,14.2-0.1,14.2-0.1S194.7,13.7,194.5,8.1z" fill="#EFB211" stroke-width="0"></path>
    </svg></g></g><g id="shape_gkEX2vAPVd" transform="translate(158.01472098137492,123.93135542275002) rotate(13,163.21530609862,140.95700239485) scale(1,1)" filter="" style="cursor: move; opacity: 1;"><g><rect fill="rgba(0,0,0,0)" width="346.43061219724" height="301.91400478971" x="-10" y="-10"></rect><svg version="1.1" id="图层_1" xmlns="http://www.w3.org/2000/svg" xmlns:xlink="http://www.w3.org/1999/xlink" x="0px" y="0px" viewBox="0 0 201.9 110.1" style="enable-background:new 0 0 201.9 110.1;" xml:space="preserve" width="326.43061219724" height="281.91400478971" class="style-removed" preserveAspectRatio="none" data-parent="shape_gkEX2vAPVd">
    
    <path d="M194.5,8.1c0,0-2.2,2.2-6,2.5c-9.3-5-28.8-12.7-57.9-10c-13.7,1.3-24.7,5.3-32.6,9.4c-0.9,0-1.8,0-2.7,0.1
        c-30.9,1.6-49,8.3-66.6,25.2c-12.5,12-15.9,28-17.1,39.7C7.7,83.6,0,85.9,0,85.9c9.5,5.6,13.7,24.3,13.7,24.3S18,91.5,27.5,85.9
        c0,0-7.2-2.1-11.3-10.1C18,63.5,26.9,50.9,37.4,41.2C49.6,29.9,70.8,20.8,105,19.7c17-0.5,31.8,1,42.7,2.8
        c5.6,4.2,5.6,10.2,5.6,10.2c5.5-5.1,18.3-4.3,18.3-4.3s-11.3-6.3-13.1-13.5c0,0-2.2,3.5-7.1,5c-8.9-3.4-21.1-7.1-34.7-8.9
        c4.9-1.6,10.6-2.6,17.7-3.2c22-1.6,42.5,3,51.8,5.6c2.1,3.6,1.3,7,1.3,7c4.9-2.8,14.2-0.1,14.2-0.1S194.7,13.7,194.5,8.1z" fill="#EFB211" stroke-width="0"></path>
    </svg></g></g><g id="shape_icw2ljIOh8" transform="translate(220.1283514503249,242.73372218240004) rotate(0,168.49890646498,110.37791999999999) scale(1,1)" filter="" style="cursor: move; opacity: 1;"><g><svg xmlns="http://www.w3.org/2000/svg" version="1.1" xmlns:xlink="http://www.w3.org/1999/xlink" width="331.84000000000003" height="220.75583999999998" viewBox="0 0 331.84000000000003 220.75583999999998" data-parent="shape_icw2ljIOh8"><rect fill="rgba(0,0,0,0)" width="210" height="36" x="30.46" y="92.37791999999999"></rect><g data-width="209.26020000000003" transform="translate(30.46, 0)"><path d="M0.34-1.55L2.31-4.02Q3.02-3.38 3.93-3.00Q4.84-2.62 5.91-2.62L5.91-2.62Q6.79-2.62 7.57-2.94Q8.35-3.26 8.91-3.85Q9.47-4.45 9.79-5.32Q10.11-6.18 10.11-7.28L10.11-7.28L10.11-21.32L13.46-21.32L13.46-6.98Q13.46-5.27 12.90-3.91Q12.34-2.56 11.33-1.60Q10.33-0.64 8.96-0.12Q7.58 0.40 6.00 0.40L6.00 0.40Q4.29 0.40 2.85-0.09Q1.40-0.58 0.34-1.55L0.34-1.55Z" transform="translate(0 120.37791999999999) " fill="#2754A5" stroke="#2754A5" stroke-width="0.051" data-glyph-w="15.717360000000001" data-glyph-h="36.33878" data-glyph-ascender="28.99792" data-glyph-descender="-7.34086"></path><path d="M5.94 0L2.59 0L2.59-21.32L5.94-21.32L5.94 0Z" transform="translate(15.717360000000001 120.37791999999999) " fill="#2754A5" stroke="#2754A5" stroke-width="0.051" data-glyph-w="8.49834" data-glyph-h="36.33878" data-glyph-ascender="28.99792" data-glyph-descender="-7.34086"></path><path d="M11.54 0L8.19 0L8.19-8.68L-0.09-21.32L3.96-21.32L9.90-12.03L15.90-21.32L19.83-21.32L11.54-8.68L11.54 0Z" transform="translate(24.215700000000002 120.37791999999999) " fill="#2754A5" stroke="#2754A5" stroke-width="0.051" data-glyph-w="19.73808" data-glyph-h="36.33878" data-glyph-ascender="28.99792" data-glyph-descender="-7.34086"></path><path d="M5.64-8.19L5.64-8.19Q5.64-6.91 6.03-5.88Q6.43-4.84 7.11-4.11Q7.80-3.38 8.73-3.00Q9.66-2.62 10.75-2.62L10.75-2.62Q11.85-2.62 12.79-3.03Q13.74-3.44 14.44-4.17Q15.14-4.90 15.53-5.92Q15.93-6.94 15.93-8.19L15.93-8.19L15.93-21.32L19.28-21.32L19.28 0L15.96 0L15.96-2.77Q14.99-1.37 13.49-0.52Q12.00 0.34 10.11 0.34L10.11 0.34Q8.44 0.34 7.01-0.26Q5.57-0.85 4.52-1.93Q3.47-3.02 2.88-4.54Q2.28-6.06 2.28-7.95L2.28-7.95L2.28-21.32L5.64-21.32L5.64-8.19Z" transform="translate(43.95378 120.37791999999999) " fill="#2754A5" stroke="#2754A5" stroke-width="0.051" data-glyph-w="21.87028" data-glyph-h="36.33878" data-glyph-ascender="28.99792" data-glyph-descender="-7.34086"></path><path d="M12.24-21.32L20.38 0L16.78 0L14.74-5.54L5.51-5.54L3.47 0L0.03 0L8.19-21.32L12.24-21.32ZM6.58-8.47L13.65-8.47L10.11-18.09L6.58-8.47Z" transform="translate(65.82406 120.37791999999999) " fill="#2754A5" stroke="#2754A5" stroke-width="0.051" data-glyph-w="20.4082" data-glyph-h="36.33878" data-glyph-ascender="28.99792" data-glyph-descender="-7.34086"></path><path d="M5.70 0L2.59 0L2.59-21.32L6.18-21.32L17.24-4.78L17.24-21.32L20.38-21.32L20.38 0L16.75 0L5.70-16.60L5.70 0Z" transform="translate(86.23226 120.37791999999999) " fill="#2754A5" stroke="#2754A5" stroke-width="0.051" data-glyph-w="22.93638" data-glyph-h="36.33878" data-glyph-ascender="28.99792" data-glyph-descender="-7.34086"></path><path d="M1.25-6.52L4.54-6.52Q4.81-4.63 6.14-3.56Q7.46-2.50 9.66-2.50L9.66-2.50Q11.67-2.50 12.76-3.37Q13.86-4.23 13.86-5.60L13.86-5.60Q13.86-7.86 10.69-8.71L10.69-8.71L6.85-9.66Q4.14-10.30 2.80-11.77Q1.46-13.25 1.46-15.47L1.46-15.47Q1.46-16.87 2.01-18.02Q2.56-19.16 3.52-19.97Q4.48-20.77 5.79-21.22Q7.10-21.66 8.65-21.66L8.65-21.66Q10.30-21.66 11.68-21.17Q13.07-20.68 14.10-19.80Q15.14-18.92 15.81-17.67Q16.48-16.42 16.66-14.93L16.66-14.93L13.37-14.93Q13.04-16.75 11.83-17.79Q10.63-18.82 8.62-18.82L8.62-18.82Q6.98-18.82 5.88-18.00Q4.78-17.18 4.78-15.75L4.78-15.75Q4.78-14.59 5.54-13.84Q6.31-13.10 7.77-12.73L7.77-12.73L11.64-11.76Q14.53-11.03 15.85-9.61Q17.18-8.19 17.18-5.91L17.18-5.91Q17.18-4.57 16.65-3.43Q16.11-2.28 15.12-1.46Q14.13-0.64 12.75-0.17Q11.36 0.30 9.66 0.30L9.66 0.30Q7.92 0.30 6.44-0.18Q4.96-0.67 3.87-1.57Q2.77-2.47 2.09-3.73Q1.40-5.00 1.25-6.52L1.25-6.52Z" transform="translate(109.16864 120.37791999999999) " fill="#2754A5" stroke="#2754A5" stroke-width="0.051" data-glyph-w="18.64152" data-glyph-h="36.33878" data-glyph-ascender="28.99792" data-glyph-descender="-7.34086"></path><path d="M5.94 0L2.59 0L2.59-21.32L5.94-21.32L5.94-12.15L16.30-12.15L16.30-21.32L19.65-21.32L19.65 0L16.30 0L16.30-9.23L5.94-9.23L5.94 0Z" transform="translate(127.81016 120.37791999999999) " fill="#2754A5" stroke="#2754A5" stroke-width="0.051" data-glyph-w="22.2358" data-glyph-h="36.33878" data-glyph-ascender="28.99792" data-glyph-descender="-7.34086"></path><path d="M5.94 0L2.59 0L2.59-21.32L5.94-21.32L5.94 0Z" transform="translate(150.04596 120.37791999999999) " fill="#2754A5" stroke="#2754A5" stroke-width="0.051" data-glyph-w="8.49834" data-glyph-h="36.33878" data-glyph-ascender="28.99792" data-glyph-descender="-7.34086"></path><path d="M20.04-11.82L20.04-9.50Q20.04-7.34 19.37-5.59Q18.70-3.84 17.47-2.60Q16.24-1.37 14.48-0.69Q12.73 0 10.57 0L10.57 0L2.59 0L2.59-21.32L10.57-21.32Q12.70-21.32 14.45-20.64Q16.20-19.95 17.45-18.72Q18.70-17.48 19.37-15.72Q20.04-13.95 20.04-11.82L20.04-11.82ZM10.36-18.40L5.94-18.40L5.94-2.92L10.33-2.92Q13.25-2.92 14.96-4.68Q16.66-6.43 16.66-9.59L16.66-9.59L16.66-11.73Q16.66-14.86 14.97-16.63Q13.28-18.40 10.36-18.40L10.36-18.40Z" transform="translate(158.54430000000002 120.37791999999999) " fill="#2754A5" stroke="#2754A5" stroke-width="0.051" data-glyph-w="21.80936" data-glyph-h="36.33878" data-glyph-ascender="28.99792" data-glyph-descender="-7.34086"></path><path d="M12.24-21.32L20.38 0L16.78 0L14.74-5.54L5.51-5.54L3.47 0L0.03 0L8.19-21.32L12.24-21.32ZM6.58-8.47L13.65-8.47L10.11-18.09L6.58-8.47Z" transform="translate(180.35366000000002 120.37791999999999) " fill="#2754A5" stroke="#2754A5" stroke-width="0.051" data-glyph-w="20.4082" data-glyph-h="36.33878" data-glyph-ascender="28.99792" data-glyph-descender="-7.34086"></path><path d="M5.94 0L2.59 0L2.59-21.32L5.94-21.32L5.94 0Z" transform="translate(200.76186 120.37791999999999) " fill="#2754A5" stroke="#2754A5" stroke-width="0.051" data-glyph-w="8.49834" data-glyph-h="36.33878" data-glyph-ascender="28.99792" data-glyph-descender="-7.34086"></path></g></svg></g></g><g id="shape_5ALDSoBZjc" transform="translate(101.99817255831492,-78.9183578176) rotate(0,303.96123190465,360.03000000000003) scale(1,1)" filter="" style="cursor: move; opacity: 1;"><g><svg xmlns="http://www.w3.org/2000/svg" version="1.1" xmlns:xlink="http://www.w3.org/1999/xlink" width="801.04" height="720.0600000000001" viewBox="0 0 801.04 720.0600000000001" data-parent="shape_5ALDSoBZjc"><rect fill="rgba(0,0,0,0)" width="401" height="120" x="100.01" y="300.03000000000003"></rect><g data-width="400.04" transform="translate(100.01, 0)"><path d="M21.30-41.30L27.60-52.61L42.60-52.61L20.40-12.00Q19.90-11.10 20.50-10.30Q21.10-9.50 22.20-9.90L22.20-9.90L41.10-15.40L41.10-9.80L13.90-1.90Q11.00-1.10 8.75-1.75Q6.50-2.40 5.25-3.95Q4.00-5.50 3.90-7.80Q3.80-10.10 5.20-12.50L5.20-12.50L17.70-34.90L11.60-33.80Q9.00-33.30 7.15-33.95Q5.30-34.60 4.30-36.00Q3.30-37.40 3.20-39.25Q3.10-41.10 4.10-43.10L4.10-43.10L20.60-76.91L35.50-76.91L18.20-42.80Q17.80-42.00 18.20-41.40Q18.60-40.80 19.50-41.00L19.50-41.00L21.30-41.30ZM63.21 10.40L96.91 10.40L93.91 16.00L52.01 16.00Q49.40 16.00 47.65 14.25Q45.90 12.50 45.90 9.90L45.90 9.90L45.90-29.40Q45.90-32.00 47.65-33.75Q49.40-35.50 52.01-35.50L52.01-35.50L77.41-35.50Q78.01-35.50 78.46-35.95Q78.91-36.40 78.91-37.00L78.91-37.00L78.91-68.91Q78.91-69.51 78.46-69.96Q78.01-70.41 77.41-70.41L77.41-70.41L43.80-70.41L43.80-76.01L88.61-76.01Q91.21-76.01 92.96-74.26Q94.71-72.51 94.71-69.91L94.71-69.91L94.71-36.00Q94.71-33.40 92.96-31.65Q91.21-29.90 88.61-29.90L88.61-29.90L63.21-29.90Q62.61-29.90 62.16-29.45Q61.71-29.00 61.71-28.40L61.71-28.40L61.71 8.90Q61.71 9.50 62.16 9.95Q62.61 10.40 63.21 10.40L63.21 10.40ZM3.30 16.90L3.30 11.10L41.40 2.10L41.40 7.70L3.30 16.90Z" transform="translate(0 393.03000000000003) " fill="rgb(39, 84, 165)" stroke="rgb(39, 84, 165)" stroke-width="0.167" data-glyph-w="100.01" data-glyph-h="104.71047" data-glyph-ascender="85.90859" data-glyph-descender="-18.80188"></path><path d="M91.41-73.61L91.41-68.01L8.50-68.01L8.50-73.61L91.41-73.61ZM80.61 9.30L96.91 9.30L93.91 14.90L69.41 14.90Q66.81 14.90 65.06 13.15Q63.31 11.40 63.31 8.80L63.31 8.80L63.31-34.60L37.20-34.60L33.30 1.30Q32.80 3.60 31.35 5.30Q29.90 7.00 27.60 7.80L27.60 7.80L3.10 16.90L3.10 10.60L15.90 5.60Q16.80 5.30 16.90 4.30L16.90 4.30L21.40-34.60L4.00-34.60L4.00-40.20L96.11-40.20L96.11-34.60L79.11-34.60L79.11 7.80Q79.11 8.40 79.56 8.85Q80.01 9.30 80.61 9.30L80.61 9.30Z" transform="translate(100.01 393.03000000000003) " fill="rgb(39, 84, 165)" stroke="rgb(39, 84, 165)" stroke-width="0.167" data-glyph-w="100.01" data-glyph-h="104.71047" data-glyph-ascender="85.90859" data-glyph-descender="-18.80188"></path><path d="M96.91-67.01L96.91-61.41L92.61-61.41L92.61 10.80Q92.61 13.40 90.86 15.15Q89.11 16.90 86.51 16.90L86.51 16.90L64.61 16.90L61.61 11.30L75.31 11.30Q75.91 11.30 76.36 10.85Q76.81 10.40 76.81 9.80L76.81 9.80L76.81-61.41L46.90-61.41L46.90-67.01L76.81-67.01L76.81-76.81L92.61-76.81L92.61-67.01L96.91-67.01ZM11.00-75.21L38.10-75.21Q40.70-75.21 42.45-73.46Q44.20-71.71 44.20-69.11L44.20-69.11L44.20 9.00Q44.20 11.60 42.45 13.35Q40.70 15.10 38.10 15.10L38.10 15.10L11.00 15.10Q8.40 15.10 6.65 13.35Q4.90 11.60 4.90 9.00L4.90 9.00L4.90-69.11Q4.90-71.71 6.65-73.46Q8.40-75.21 11.00-75.21L11.00-75.21ZM28.80-69.61L20.20-69.61Q19.60-69.61 19.15-69.16Q18.70-68.71 18.70-68.11L18.70-68.11L18.70-32.90L30.30-32.90L30.30-68.11Q30.30-68.71 29.85-69.16Q29.40-69.61 28.80-69.61L28.80-69.61ZM65.91-54.11L72.61 0.10L56.81 0.10L50.11-54.11L65.91-54.11ZM20.20 9.50L28.80 9.50Q29.40 9.50 29.85 9.05Q30.30 8.60 30.30 8.00L30.30 8.00L30.30-27.30L18.70-27.30L18.70 8.00Q18.70 8.60 19.15 9.05Q19.60 9.50 20.20 9.50L20.20 9.50Z" transform="translate(200.02 393.03000000000003) " fill="rgb(39, 84, 165)" stroke="rgb(39, 84, 165)" stroke-width="0.167" data-glyph-w="100.01" data-glyph-h="104.71047" data-glyph-ascender="85.90859" data-glyph-descender="-18.80188"></path><path d="M23.90-44.80L19.40-43.80L32.30-43.80L32.30 16.80L16.50 16.80L16.50-43.20L3.10-40.20L3.10-45.80L11.00-47.50Q12.20-47.70 13.20-48.55Q14.20-49.40 14.70-50.51L14.70-50.51L26.60-76.91L42.60-76.91L31.20-50.81Q30.20-48.50 28.30-46.90Q26.40-45.30 23.90-44.80L23.90-44.80ZM85.11 8.80L96.91 10.90L96.91 16.80L73.51 12.80Q69.91 12.30 67.51 9.80Q65.11 7.30 64.61 3.60L64.61 3.60L57.51-47.30L38.90-47.30L38.90-52.91L56.71-52.91L53.31-76.91L69.11-76.91L72.61-52.91L79.81-52.91Q80.41-52.91 80.86-53.36Q81.31-53.81 81.31-54.41L81.31-54.41L81.31-74.11L96.11-74.11L96.11-53.41Q96.11-50.81 94.36-49.05Q92.61-47.30 90.01-47.30L90.01-47.30L73.41-47.30L80.81 4.40Q81.01 6.20 82.21 7.40Q83.41 8.60 85.11 8.80L85.11 8.80Z" transform="translate(300.03000000000003 393.03000000000003) " fill="rgb(39, 84, 165)" stroke="rgb(39, 84, 165)" stroke-width="0.167" data-glyph-w="100.01" data-glyph-h="104.71047" data-glyph-ascender="85.90859" data-glyph-descender="-18.80188"></path></g></svg></g></g> <!----><defs><pattern id="wm_tile" x="0" y="0" width="20%" height="27%" patternunits="objectBoundingBox"><g id="wm_lm" transform="translate(-188.000000, -323.000000)" fill="#cccccc"><text font-size="15" transform="translate(270.490979, 373.245789) rotate(-390.000000) translate(-270.490979, -373.245789)"><tspan x="187.490979" opacity=".3" y="378.245789">copyright © copyright © </tspan></text></g></pattern></defs><rect x="0" y="0" width="100%" height="100%" style="fill: url(#wm_tile);"></rect></svg>